<svg version="1.1" viewBox="0.0 0.0 689.9133858267717 627.9002624671916" fill="none" stroke="none" stroke-linecap="square" stroke-miterlimit="10" xmlns:xlink="http://www.w3.org/1999/xlink" xmlns="http://www.w3.org/2000/svg"><clipPath id="p.0"><path d="m0 0l689.9134 0l0 627.90027l-689.9134 0l0 -627.90027z" clip-rule="nonzero"/></clipPath><g clip-path="url(#p.0)"><path fill="#000000" fill-opacity="0.0" d="m0 0l689.9134 0l0 627.90027l-689.9134 0z" fill-rule="evenodd"/><path fill="#cccccc" d="m444.98557 144.61154l55.496063 0l0 114.48819l-55.496063 0z" fill-rule="evenodd"/><path stroke="#cccccc" stroke-width="1.0" stroke-linejoin="round" stroke-linecap="butt" d="m444.98557 144.61154l55.496063 0l0 114.48819l-55.496063 0z" fill-rule="evenodd"/><path fill="#666666" d="m444.98688 182.11023l55.496063 0l0 35.496063l-55.496063 0z" fill-rule="evenodd"/><path stroke="#666666" stroke-width="1.0" stroke-linejoin="round" stroke-linecap="butt" d="m444.98688 182.11023l55.496063 0l0 35.496063l-55.496063 0z" fill-rule="evenodd"/><path fill="#77b255" d="m120.3942 29.787401l177.65335 0l0 0c23.273071 0 42.13965 19.568472 42.13965 43.707405c0 24.138931 -18.866577 43.707397 -42.13965 43.707397l-177.65335 0l0 0c-23.273071 0 -42.139618 -19.568466 -42.139618 -43.707397c0 -24.138931 18.866547 -43.707405 42.139618 -43.707405z" fill-rule="evenodd"/><path stroke="#77b255" stroke-width="1.0" stroke-linejoin="round" stroke-linecap="butt" d="m120.3942 29.787401l177.65335 0l0 0c23.273071 0 42.13965 19.568472 42.13965 43.707405c0 24.138931 -18.866577 43.707397 -42.13965 43.707397l-177.65335 0l0 0c-23.273071 0 -42.139618 -19.568466 -42.139618 -43.707397c0 -24.138931 18.866547 -43.707405 42.139618 -43.707405z" fill-rule="evenodd"/><path fill="#292f33" d="m327.36063 85.28871l59.374268 412.3097l-296.87137 0l0 -412.3097z" fill-rule="evenodd"/><path stroke="#292f33" stroke-width="24.0" stroke-linejoin="round" stroke-linecap="butt" d="m327.36063 85.28871l59.374268 412.3097l-296.87137 0l0 -412.3097z" fill-rule="evenodd"/><path fill="#cfe2f3" d="m120.73491 403.11023l-1.0 -292.0l183.32545 0l41.666656 292.00262z" fill-rule="evenodd"/><path stroke="#cfe2f3" stroke-width="24.0" stroke-linejoin="round" stroke-linecap="round" d="m120.73491 403.11023l-1.0 -292.0l183.32545 0l41.666656 292.00262z" fill-rule="evenodd"/><path fill="#77b255" d="m85.73491 241.21785l0 263.8924l326.0 0l-75.0 -229.0l-29.0 -25.0l-41.0 -11.0z" fill-rule="evenodd"/><path stroke="#77b255" stroke-width="16.0" stroke-linejoin="round" stroke-linecap="butt" d="m85.73491 241.21785l0 263.8924l326.0 0l-75.0 -229.0l-29.0 -25.0l-41.0 -11.0z" fill-rule="evenodd"/><path fill="#292f33" d="m20.73491 430.11023l0 0c0 -92.783844 74.32073 -168.0 166.0 -168.0l0 0c44.02594 0 86.24867 17.699951 117.379715 49.206055c31.131042 31.506134 48.62027 74.23758 48.62027 118.793945l0 0c0 92.783875 -74.32071 168.0 -165.99998 168.0l0 0c-91.67927 0 -166.0 -75.216125 -166.0 -168.0z" fill-rule="evenodd"/><path stroke="#000000" stroke-width="1.0" stroke-linejoin="round" stroke-linecap="butt" d="m20.73491 430.11023l0 0c0 -92.783844 74.32073 -168.0 166.0 -168.0l0 0c44.02594 0 86.24867 17.699951 117.379715 49.206055c31.131042 31.506134 48.62027 74.23758 48.62027 118.793945l0 0c0 92.783875 -74.32071 168.0 -165.99998 168.0l0 0c-91.67927 0 -166.0 -75.216125 -166.0 -168.0z" fill-rule="evenodd"/><path fill="#ffcc66" d="m80.81365 430.11023l0 0c0 -58.498688 47.422554 -105.921265 105.92126 -105.921265l0 0c28.092056 0 55.033554 11.159546 74.89763 31.02362c19.864105 19.864105 31.02362 46.805573 31.02362 74.897644l0 0c0 58.49872 -47.422546 105.921265 -105.92125 105.921265l0 0c-58.498703 0 -105.92126 -47.422546 -105.92126 -105.921265z" fill-rule="evenodd"/><path stroke="#ffcc66" stroke-width="1.0" stroke-linejoin="round" stroke-linecap="butt" d="m80.81365 430.11023l0 0c0 -58.498688 47.422554 -105.921265 105.92126 -105.921265l0 0c28.092056 0 55.033554 11.159546 74.89763 31.02362c19.864105 19.864105 31.02362 46.805573 31.02362 74.897644l0 0c0 58.49872 -47.422546 105.921265 -105.92125 105.921265l0 0c-58.498703 0 -105.92126 -47.422546 -105.92126 -105.921265z" fill-rule="evenodd"/><path fill="#000000" fill-opacity="0.0" d="m89.86089 80.950134l238.86612 0" fill-rule="evenodd"/><path stroke="#292f33" stroke-width="24.0" stroke-linejoin="round" d="m89.86089 80.950134l238.86612 0" fill-rule="evenodd"/><path fill="#77b255" d="m358.46194 220.39108l228.52231 47.146973l0.020996094 246.4147l-189.5433 -2.0551147z" fill-rule="evenodd"/><path stroke="#77b255" stroke-width="1.0" stroke-linejoin="round" stroke-linecap="butt" d="m358.46194 220.39108l228.52231 47.146973l0.020996094 246.4147l-189.5433 -2.0551147z" fill-rule="evenodd"/><path fill="#77b255" d="m518.91077 438.8176l0 0c0 -41.4953 33.63855 -75.13388 75.13385 -75.13388l0 0c19.926758 0 39.037354 7.915863 53.127686 22.006195c14.090332 14.090332 22.006165 33.200928 22.006165 53.127686l0 0c0 41.49527 -33.63855 75.13382 -75.13385 75.13382l0 0c-41.4953 0 -75.13385 -33.63855 -75.13385 -75.13382z" fill-rule="evenodd"/><path stroke="#77b255" stroke-width="1.0" stroke-linejoin="round" stroke-linecap="butt" d="m518.91077 438.8176l0 0c0 -41.4953 33.63855 -75.13388 75.13385 -75.13388l0 0c19.926758 0 39.037354 7.915863 53.127686 22.006195c14.090332 14.090332 22.006165 33.200928 22.006165 53.127686l0 0c0 41.49527 -33.63855 75.13382 -75.13385 75.13382l0 0c-41.4953 0 -75.13385 -33.63855 -75.13385 -75.13382z" fill-rule="evenodd"/><path fill="#77b255" d="m491.79004 339.8281l0 0c0 -41.4953 33.63855 -75.13388 75.13385 -75.13388l0 0c19.926758 0 39.037354 7.915863 53.127686 22.006195c14.090332 14.090332 22.006165 33.200928 22.006165 53.127686l0 0c0 41.49527 -33.63855 75.13385 -75.13385 75.13385l0 0c-41.4953 0 -75.13385 -33.63858 -75.13385 -75.13385z" fill-rule="evenodd"/><path stroke="#77b255" stroke-width="1.0" stroke-linejoin="round" stroke-linecap="butt" d="m491.79004 339.8281l0 0c0 -41.4953 33.63855 -75.13388 75.13385 -75.13388l0 0c19.926758 0 39.037354 7.915863 53.127686 22.006195c14.090332 14.090332 22.006165 33.200928 22.006165 53.127686l0 0c0 41.49527 -33.63855 75.13385 -75.13385 75.13385l0 0c-41.4953 0 -75.13385 -33.63858 -75.13385 -75.13385z" fill-rule="evenodd"/><path fill="#292f33" d="m478.0315 522.6142l0 0c0 -41.695343 33.80075 -75.49609 75.49609 -75.49609l0 0c20.022766 0 39.225464 7.9540405 53.383728 22.112305c14.158264 14.158234 22.112305 33.360962 22.112305 53.38379l0 0c0 41.695312 -33.80072 75.49603 -75.49603 75.49603l0 0c-41.695343 0 -75.49609 -33.80072 -75.49609 -75.49603z" fill-rule="evenodd"/><path stroke="#000000" stroke-width="1.0" stroke-linejoin="round" stroke-linecap="butt" d="m478.0315 522.6142l0 0c0 -41.695343 33.80075 -75.49609 75.49609 -75.49609l0 0c20.022766 0 39.225464 7.9540405 53.383728 22.112305c14.158264 14.158234 22.112305 33.360962 22.112305 53.38379l0 0c0 41.695312 -33.80072 75.49603 -75.49603 75.49603l0 0c-41.695343 0 -75.49609 -33.80072 -75.49609 -75.49603z" fill-rule="evenodd"/><path fill="#000000" fill-opacity="0.0" d="m69.71373 239.03712c49.095802 0 73.64371 0.023620605 98.191605 0.04724121c24.547913 0.023620605 49.09581 0.04724121 98.19162 0.04724121" fill-rule="evenodd"/><path stroke="#5c913b" stroke-width="24.0" stroke-linejoin="round" stroke-linecap="round" d="m69.71373 239.03712c49.095802 0 73.64371 0.023620605 98.191605 0.04724121c24.547913 0.023620605 49.09581 0.04724121 98.19162 0.04724121" fill-rule="evenodd"/><path fill="#000000" fill-opacity="0.0" d="m266.09695 239.1316l0 0c44.273438 0 83.23477 36.100967 95.63455 88.61345l-95.63455 34.473175z" fill-rule="evenodd"/><path fill="#000000" fill-opacity="0.0" d="m266.09695 239.1316l0 0c44.273438 0 83.23477 36.100967 95.63455 88.61345" fill-rule="evenodd"/><path stroke="#5c913b" stroke-width="24.0" stroke-linejoin="round" stroke-linecap="round" d="m266.09695 239.1316l0 0c44.273438 0 83.23477 36.100967 95.63455 88.61345" fill-rule="evenodd"/><path fill="#000000" fill-opacity="0.0" d="m361.7315 327.74506l36.917297 137.38583" fill-rule="evenodd"/><path stroke="#5c913b" stroke-width="24.0" stroke-linejoin="round" stroke-linecap="round" d="m361.7315 327.74506l36.917297 137.38583" fill-rule="evenodd"/><path fill="#000000" fill-opacity="0.0" d="m629.02234 301.71783l39.71649 175.21262" fill-rule="evenodd"/><path stroke="#3e721d" stroke-width="24.0" stroke-linejoin="round" stroke-linecap="round" d="m629.02234 301.71783l39.71649 175.21262" fill-rule="evenodd"/><path fill="#ffffcc" d="m123.74278 430.10892l0 0c0 -34.24164 28.20253 -62.0 62.992126 -62.0l0 0c16.706543 0 32.728836 6.532135 44.54216 18.159393c11.813309 11.627258 18.449966 27.397186 18.449966 43.840607l0 0c0 34.24167 -28.20253 62.0 -62.992126 62.0l0 0c-34.789597 0 -62.992126 -27.758331 -62.992126 -62.0z" fill-rule="evenodd"/><path stroke="#ffffcc" stroke-width="1.0" stroke-linejoin="round" stroke-linecap="butt" d="m123.74278 430.10892l0 0c0 -34.24164 28.20253 -62.0 62.992126 -62.0l0 0c16.706543 0 32.728836 6.532135 44.54216 18.159393c11.813309 11.627258 18.449966 27.397186 18.449966 43.840607l0 0c0 34.24167 -28.20253 62.0 -62.992126 62.0l0 0c-34.789597 0 -62.992126 -27.758331 -62.992126 -62.0z" fill-rule="evenodd"/><path fill="#f99a1c" d="m143.03412 430.11023l0 0c0 -24.135284 19.565506 -43.700775 43.70079 -43.700775l0 0c11.590164 0 22.705627 4.6041565 30.901123 12.799652c8.19548 8.195496 12.799667 19.310974 12.799667 30.901123l0 0c0 24.135284 -19.565506 43.700806 -43.70079 43.700806l0 0c-24.135284 0 -43.70079 -19.565521 -43.70079 -43.700806z" fill-rule="evenodd"/><path stroke="#f99a1c" stroke-width="1.0" stroke-linejoin="round" stroke-linecap="butt" d="m143.03412 430.11023l0 0c0 -24.135284 19.565506 -43.700775 43.70079 -43.700775l0 0c11.590164 0 22.705627 4.6041565 30.901123 12.799652c8.19548 8.195496 12.799667 19.310974 12.799667 30.901123l0 0c0 24.135284 -19.565506 43.700806 -43.70079 43.700806l0 0c-24.135284 0 -43.70079 -19.565521 -43.70079 -43.700806z" fill-rule="evenodd"/><path fill="#ffcc66" d="m516.2034 522.6142l0 0c0 -20.612854 16.70996 -37.322845 37.322815 -37.322845l0 0c9.898621 0 19.391846 3.93219 26.391235 10.93158c6.9993896 6.9993896 10.93158 16.492584 10.93158 26.391266l0 0c0 20.612793 -16.70996 37.322815 -37.322815 37.322815l0 0c-20.612854 0 -37.322815 -16.710022 -37.322815 -37.322815z" fill-rule="evenodd"/><path stroke="#ffcc66" stroke-width="1.0" stroke-linejoin="round" stroke-linecap="butt" d="m516.2034 522.6142l0 0c0 -20.612854 16.70996 -37.322845 37.322815 -37.322845l0 0c9.898621 0 19.391846 3.93219 26.391235 10.93158c6.9993896 6.9993896 10.93158 16.492584 10.93158 26.391266l0 0c0 20.612793 -16.70996 37.322815 -37.322815 37.322815l0 0c-20.612854 0 -37.322815 -16.710022 -37.322815 -37.322815z" fill-rule="evenodd"/><path fill="#f99a1c" d="m534.5512 522.6142l0 0c0 -10.480408 8.496033 -18.97641 18.97638 -18.97641l0 0c5.032837 0 9.859558 1.9992981 13.418335 5.558075c3.5587769 3.5587769 5.5580444 8.385437 5.5580444 13.418335l0 0c0 10.480347 -8.496033 18.97638 -18.97638 18.97638l0 0c-10.480347 0 -18.97638 -8.496033 -18.97638 -18.97638z" fill-rule="evenodd"/><path stroke="#f99a1c" stroke-width="1.0" stroke-linejoin="round" stroke-linecap="butt" d="m534.5512 522.6142l0 0c0 -10.480408 8.496033 -18.97641 18.97638 -18.97641l0 0c5.032837 0 9.859558 1.9992981 13.418335 5.558075c3.5587769 3.5587769 5.5580444 8.385437 5.5580444 13.418335l0 0c0 10.480347 -8.496033 18.97638 -18.97638 18.97638l0 0c-10.480347 0 -18.97638 -8.496033 -18.97638 -18.97638z" fill-rule="evenodd"/><path fill="#ffcc66" d="m623.1286 335.11023l-246.3937 0l7.8687744 35.0l246.63254 -0.32281494z" fill-rule="evenodd"/><path stroke="#ffcc66" stroke-width="1.0" stroke-linejoin="round" stroke-linecap="butt" d="m623.1286 335.11023l-246.3937 0l7.8687744 35.0l246.63254 -0.32281494z" fill-rule="evenodd"/></g></svg>